<svg width="241" height="26" viewBox="0 0 241 26" fill="none" xmlns="http://www.w3.org/2000/svg">
<path d="M4.55609 25.8C3.72943 25.8 2.94276 25.56 2.19609 25.08C1.44943 24.6 0.889427 23.8933 0.516094 22.96C0.38276 22.6133 0.289427 22.24 0.236094 21.84C0.209427 21.44 0.196094 21.0533 0.196094 20.68V20.16C0.196094 19.9733 0.209427 19.8 0.236094 19.64C0.289427 19.48 0.396094 19.4 0.556094 19.4C0.609427 19.4 0.636094 19.4267 0.636094 19.48C0.636094 19.64 0.62276 19.8 0.596094 19.96C0.596094 20.12 0.596094 20.28 0.596094 20.44C0.596094 21.6933 0.90276 22.64 1.51609 23.28C2.15609 23.92 2.94276 24.24 3.87609 24.24C4.80943 24.24 5.71609 23.9733 6.59609 23.44C7.47609 22.9067 8.28943 22.2267 9.03609 21.4C9.64943 20.7333 10.2494 19.8667 10.8361 18.8C11.4494 17.7333 12.0761 16.5867 12.7161 15.36C11.8628 15.3867 10.9694 15.4267 10.0361 15.48C9.10276 15.5067 8.24943 15.5867 7.47609 15.72C7.23609 15.7467 7.16943 15.68 7.27609 15.52C7.38276 15.36 7.58276 15.16 7.87609 14.92C8.16943 14.68 8.47609 14.4667 8.79609 14.28C9.14276 14.0933 9.42276 13.9867 9.63609 13.96C10.0894 13.9867 10.6494 14.0133 11.3161 14.04C12.0094 14.04 12.6894 14.0533 13.3561 14.08C13.9428 13.0133 14.5028 11.9333 15.0361 10.84C15.5961 9.72 16.1161 8.68 16.5961 7.72C16.8628 7.18667 17.2094 6.65333 17.6361 6.12C18.0894 5.56 18.5828 5.06667 19.1161 4.64C19.6761 4.21333 20.2494 3.94667 20.8361 3.84C19.4228 3.89333 17.9561 3.93333 16.4361 3.96C14.9428 3.98667 13.5161 4.18667 12.1561 4.56C11.5428 4.72 10.9961 4.93333 10.5161 5.2C10.0361 5.46667 9.68943 5.8 9.47609 6.2C9.26276 6.6 9.15609 7.04 9.15609 7.52C9.15609 8.18667 9.34276 8.66667 9.71609 8.96C9.74276 8.98667 9.75609 9.01333 9.75609 9.04C9.75609 9.09333 9.70276 9.14667 9.59609 9.2C9.51609 9.25333 9.43609 9.26667 9.35609 9.24C9.11609 9.10667 8.82276 8.78667 8.47609 8.28C8.12943 7.74667 7.91609 7.30667 7.83609 6.96C7.75609 6.64 7.71609 6.34667 7.71609 6.08C7.71609 5.38667 7.94276 4.85333 8.39609 4.48C8.84943 4.08 9.42276 3.8 10.1161 3.64C10.8094 3.45333 11.5161 3.34667 12.2361 3.32C12.9561 3.26667 13.5961 3.24 14.1561 3.24H18.5961C19.6094 3.24 20.4894 3.24 21.2361 3.24C21.9828 3.21333 22.5828 3.16 23.0361 3.08C23.0894 3.08 23.1294 3.08 23.1561 3.08C23.1828 3.05333 23.2094 3.04 23.2361 3.04C23.3961 3.04 23.4761 3.09333 23.4761 3.2C23.4761 3.30667 23.4228 3.41333 23.3161 3.52C23.2361 3.6 23.1694 3.64 23.1161 3.64C22.2894 3.72 21.5161 4.08 20.7961 4.72C20.0761 5.36 19.4228 6.18667 18.8361 7.2C18.6761 7.49333 18.3828 8.04 17.9561 8.84C17.5294 9.64 17.0628 10.52 16.5561 11.48C16.0494 12.44 15.5828 13.3333 15.1561 14.16C15.6628 14.1867 16.0761 14.2133 16.3961 14.24C16.7428 14.24 16.9428 14.24 16.9961 14.24H22.8761C23.1161 14.24 23.5561 14.2 24.1961 14.12C24.8628 14.04 25.3694 13.92 25.7161 13.76C26.4361 12.3733 27.1694 11 27.9161 9.64C28.6628 8.28 29.3561 7.06667 29.9961 6C30.6628 4.90667 31.1828 4.12 31.5561 3.64C32.0094 3.45333 32.5161 3.22667 33.0761 2.96C33.6628 2.69333 34.2361 2.45333 34.7961 2.24C35.3828 2.02667 35.9028 1.92 36.3561 1.92C36.4894 1.92 36.6228 1.96 36.7561 2.04C36.9161 2.12 36.9961 2.2 36.9961 2.28C36.9961 2.41333 36.7294 2.48 36.1961 2.48C35.9294 2.48 35.6494 2.53333 35.3561 2.64C35.0628 2.72 34.6894 3 34.2361 3.48C33.8628 3.85333 33.3694 4.49333 32.7561 5.4C32.1694 6.28 31.5294 7.32 30.8361 8.52C30.1428 9.69333 29.4361 10.9333 28.7161 12.24C28.0228 13.5467 27.3694 14.8267 26.7561 16.08C26.1428 17.3067 25.6228 18.4267 25.1961 19.44C24.7694 20.4267 24.4894 21.1867 24.3561 21.72C24.3294 21.9067 24.2894 22.12 24.2361 22.36C24.2094 22.5733 24.1961 22.7867 24.1961 23C24.1961 23.4267 24.3028 23.8 24.5161 24.12C24.7294 24.44 25.1294 24.6 25.7161 24.6C26.1428 24.6 26.5694 24.52 26.9961 24.36C27.4494 24.2 27.8494 24.0267 28.1961 23.84C29.1561 23.3067 30.0228 22.5867 30.7961 21.68C31.5694 20.7467 32.1961 19.96 32.6761 19.32C32.7561 19.2133 32.8094 19.16 32.8361 19.16C32.9161 19.16 32.9561 19.2533 32.9561 19.44C32.9561 19.6 32.9161 19.7467 32.8361 19.88C32.3294 20.6 31.6628 21.44 30.8361 22.4C30.0094 23.3333 29.0494 24.1067 27.9561 24.72C27.1028 25.1733 26.1294 25.4 25.0361 25.4C24.2094 25.4 23.4894 25.1067 22.8761 24.52C22.2894 23.9067 21.9961 23.1733 21.9961 22.32C21.9961 21.8933 22.0761 21.4667 22.2361 21.04C22.4761 20.4267 22.8628 19.5467 23.3961 18.4C23.9561 17.2533 24.5828 15.9867 25.2761 14.6C25.0094 14.84 24.7028 15.0533 24.3561 15.24C24.0094 15.4267 23.6761 15.5067 23.3561 15.48C22.5294 15.4 21.5828 15.36 20.5161 15.36C19.4761 15.3333 18.1294 15.32 16.4761 15.32H14.5561C13.8094 16.84 13.0361 18.3333 12.2361 19.8C11.4361 21.24 10.6094 22.4267 9.75609 23.36C9.08943 24.08 8.28943 24.6667 7.35609 25.12C6.42276 25.5733 5.48943 25.8 4.55609 25.8ZM37.5773 25.12C37.3107 25.12 37.084 25.0667 36.8973 24.96C36.7107 24.8533 36.6173 24.6533 36.6173 24.36C36.6173 23.9867 36.7107 23.56 36.8973 23.08C37.084 22.6 37.2973 22.1333 37.5373 21.68C37.7773 21.2 37.9907 20.8133 38.1773 20.52C37.244 21.5067 36.2707 22.44 35.2573 23.32C34.7507 23.7467 34.1907 24.1467 33.5773 24.52C32.964 24.8933 32.3107 25.08 31.6173 25.08C31.3507 25.08 31.164 25 31.0573 24.84C30.9507 24.6533 30.8973 24.44 30.8973 24.2C30.8973 24.0667 30.9107 23.9733 30.9373 23.92C31.0707 22.88 31.404 21.8 31.9373 20.68C32.4707 19.56 33.124 18.5067 33.8973 17.52C34.6707 16.5333 35.4573 15.7333 36.2573 15.12C37.164 14.4267 38.164 14.08 39.2573 14.08H43.8573C43.9907 14.08 44.0573 14.1333 44.0573 14.24C44.0573 14.4533 43.9373 14.56 43.6973 14.56C43.4307 14.56 43.164 14.7333 42.8973 15.08C42.6307 15.4 42.4307 15.6667 42.2973 15.88C42.1107 16.1733 41.8173 16.6667 41.4173 17.36C41.0173 18.0533 40.604 18.8133 40.1773 19.64C39.7773 20.44 39.4307 21.1867 39.1373 21.88C38.844 22.5733 38.6973 23.08 38.6973 23.4C38.6973 23.7733 38.884 23.96 39.2573 23.96C39.6573 23.96 40.1107 23.7733 40.6173 23.4C41.124 23.0267 41.6307 22.5733 42.1373 22.04C42.6707 21.48 43.1507 20.9333 43.5773 20.4C44.0307 19.84 44.3907 19.4 44.6573 19.08C44.8173 19.24 44.804 19.4667 44.6173 19.76C44.4573 20.0267 44.3107 20.24 44.1773 20.4C43.644 21.0933 43.0307 21.8133 42.3373 22.56C41.644 23.28 40.884 23.8933 40.0573 24.4C39.2573 24.88 38.4307 25.12 37.5773 25.12ZM33.2573 23.72C33.5773 23.72 34.0173 23.4933 34.5773 23.04C35.164 22.56 35.7907 21.9733 36.4573 21.28C37.124 20.56 37.7507 19.8133 38.3373 19.04C38.924 18.24 39.404 17.52 39.7773 16.88C40.1773 16.2133 40.3773 15.7067 40.3773 15.36C40.3773 15.0667 40.284 14.8667 40.0973 14.76C39.9373 14.6533 39.724 14.6 39.4573 14.6C39.0307 14.6 38.564 14.76 38.0573 15.08C37.5773 15.3733 37.1907 15.6667 36.8973 15.96C36.5773 16.2533 36.1907 16.72 35.7373 17.36C35.3107 17.9733 34.884 18.6533 34.4573 19.4C34.0307 20.1467 33.6707 20.8667 33.3773 21.56C33.084 22.2533 32.9373 22.8133 32.9373 23.24C32.9373 23.56 33.044 23.72 33.2573 23.72ZM44.1352 25.56C44.0285 25.56 44.0285 25.4533 44.1352 25.24C44.2685 25 44.3885 24.7333 44.4952 24.44C44.6285 24.1467 44.7618 23.8267 44.8952 23.48C45.1618 22.84 45.4552 22.12 45.7752 21.32C46.0952 20.52 46.4018 19.7467 46.6952 19C46.9885 18.2267 47.2418 17.5733 47.4552 17.04C47.6952 16.48 47.8552 16.12 47.9352 15.96C47.5618 16.36 47.1085 16.8667 46.5752 17.48C46.0685 18.0667 45.5885 18.64 45.1352 19.2C44.6818 19.76 44.3352 20.2 44.0952 20.52C44.0152 20.6267 43.9485 20.68 43.8952 20.68C43.8418 20.68 43.8152 20.6133 43.8152 20.48C43.8152 20.2667 43.8818 20.0667 44.0152 19.88C44.5218 19.24 45.0818 18.52 45.6952 17.72C46.3352 16.92 46.9085 16.1867 47.4152 15.52C47.9218 14.8267 48.2418 14.3733 48.3752 14.16C48.6685 14.1067 49.0952 14.0267 49.6552 13.92C50.2418 13.8133 50.6418 13.6667 50.8552 13.48C50.9352 13.4 51.0152 13.36 51.0952 13.36C51.1485 13.36 51.1752 13.4133 51.1752 13.52C51.2018 13.6 51.1752 13.6933 51.0952 13.8C50.9352 13.96 50.6952 14.3067 50.3752 14.84C50.0818 15.3733 49.7485 15.9867 49.3752 16.68C49.0018 17.3733 48.6418 18.04 48.2952 18.68C48.5618 18.28 48.9085 17.8133 49.3352 17.28C49.7885 16.72 50.2818 16.1867 50.8152 15.68C51.3485 15.1467 51.8818 14.7067 52.4152 14.36C52.9752 14.0133 53.4952 13.84 53.9752 13.84C54.3218 13.84 54.6152 13.92 54.8552 14.08C55.0952 14.2133 55.2818 14.4667 55.4152 14.84C55.4952 15.0267 55.5352 15.24 55.5352 15.48C55.5352 15.9333 55.4152 16.3733 55.1752 16.8C54.9618 17.2 54.8018 17.5067 54.6952 17.72C54.6685 17.8 54.5752 17.88 54.4152 17.96C54.2552 18.0133 54.1885 17.9867 54.2152 17.88C54.2418 17.7467 54.2552 17.6133 54.2552 17.48C54.2818 17.3467 54.2952 17.2 54.2952 17.04C54.2952 16.5867 54.2018 16.1733 54.0152 15.8C53.8552 15.4267 53.5485 15.24 53.0952 15.24C52.6685 15.24 52.1485 15.5067 51.5352 16.04C50.9218 16.5733 50.3085 17.1867 49.6952 17.88C48.9218 18.7867 48.3085 19.6533 47.8552 20.48C47.4018 21.28 47.0285 22.0667 46.7352 22.84C46.5752 23.2667 46.4152 23.6933 46.2552 24.12C46.0952 24.52 45.9752 24.84 45.8952 25.08C45.5485 25.1067 45.2018 25.1867 44.8552 25.32C44.5085 25.48 44.2685 25.56 44.1352 25.56ZM57.1936 25.64C56.7136 25.64 56.2069 25.5733 55.6736 25.44C55.1403 25.3067 54.6603 25.0933 54.2336 24.8C53.8336 24.48 53.5669 24.0533 53.4336 23.52C53.4069 23.44 53.3936 23.32 53.3936 23.16C53.3936 22.7867 53.4736 22.3733 53.6336 21.92C53.8203 21.4667 54.0469 21.1467 54.3136 20.96C54.4203 20.9067 54.5003 20.9067 54.5536 20.96C54.6336 21.0133 54.6469 21.0667 54.5936 21.12C54.5669 21.2 54.5269 21.3067 54.4736 21.44C54.4203 21.5467 54.3803 21.6667 54.3536 21.8C54.2736 22.4933 54.4203 23.1067 54.7936 23.64C54.9536 23.8533 55.1403 24.0533 55.3536 24.24C55.5936 24.4267 55.8203 24.5867 56.0336 24.72C56.2203 24.8267 56.4469 24.9067 56.7136 24.96C56.9803 24.9867 57.2469 25 57.5136 25C57.9403 25 58.3536 24.9467 58.7536 24.84C59.1536 24.7333 59.4469 24.56 59.6336 24.32C59.9803 23.8933 60.1536 23.4133 60.1536 22.88C60.1536 22.48 60.0469 22.0533 59.8336 21.6C59.6203 21.1467 59.2869 20.6667 58.8336 20.16C58.5403 19.84 58.2603 19.4933 57.9936 19.12C57.7269 18.7467 57.5536 18.3467 57.4736 17.92C57.4469 17.84 57.4203 17.76 57.3936 17.68C57.3936 17.6 57.3936 17.52 57.3936 17.44C57.0469 17.9467 56.6869 18.4267 56.3136 18.88C55.9669 19.3067 55.6603 19.68 55.3936 20C55.2869 20.16 55.1936 20.24 55.1136 20.24C55.0603 20.24 55.0336 20.1867 55.0336 20.08C55.0336 19.84 55.1403 19.5867 55.3536 19.32C55.5669 19.08 55.8069 18.7867 56.0736 18.44C56.3403 18.0667 56.5536 17.7733 56.7136 17.56C57.1669 16.8933 57.5003 16.3733 57.7136 16C57.9536 15.6 58.2069 15.24 58.4736 14.92C58.7669 14.5733 59.1269 14.2933 59.5536 14.08C60.0069 13.8667 60.4736 13.76 60.9536 13.76C61.5136 13.76 62.0203 13.8533 62.4736 14.04C62.9536 14.2 63.2069 14.6267 63.2336 15.32C63.2336 15.64 63.1669 15.9733 63.0336 16.32C62.9269 16.64 62.8069 16.9467 62.6736 17.24C62.5936 17.4 62.4736 17.52 62.3136 17.6C62.1803 17.6533 62.1136 17.6267 62.1136 17.52C62.1136 17.4133 62.1269 17.2933 62.1536 17.16C62.1803 17.0267 62.1936 16.9067 62.1936 16.8C62.1936 16.3467 62.1136 15.9467 61.9536 15.6C61.8203 15.2267 61.6203 14.96 61.3536 14.8C61.0869 14.6133 60.8069 14.52 60.5136 14.52C60.0869 14.52 59.6736 14.6933 59.2736 15.04C58.8736 15.36 58.6736 15.7867 58.6736 16.32C58.6736 16.3733 58.6736 16.44 58.6736 16.52C58.6736 16.6 58.6869 16.6667 58.7136 16.72C58.8203 17.1467 59.1403 17.6267 59.6736 18.16C60.2069 18.6933 60.6203 19.16 60.9136 19.56C61.4203 20.2533 61.6736 20.96 61.6736 21.68C61.6736 22.4 61.4603 23.0667 61.0336 23.68C60.6336 24.2667 60.0869 24.7333 59.3936 25.08C58.7269 25.4533 57.9936 25.64 57.1936 25.64ZM70.0105 25.24C69.6105 25.24 69.2505 25.16 68.9305 25C68.6371 24.84 68.4905 24.5467 68.4905 24.12C68.4905 23.88 68.5438 23.6133 68.6505 23.32C68.8905 22.7067 69.2105 21.96 69.6105 21.08C70.0371 20.2 70.4638 19.3467 70.8905 18.52C71.3171 17.6667 71.6505 16.9733 71.8905 16.44C72.0505 16.12 72.1305 15.8933 72.1305 15.76C72.1305 15.52 71.9971 15.4667 71.7305 15.6C71.4638 15.7333 71.1705 15.92 70.8505 16.16C70.5305 16.4 70.2905 16.5867 70.1305 16.72C69.4371 17.36 68.7038 18.12 67.9305 19C67.1838 19.8533 66.4905 20.76 65.8505 21.72C65.2371 22.6533 64.7571 23.5867 64.4105 24.52C64.3838 24.68 64.2105 24.8133 63.8905 24.92C63.5705 25.0267 63.2771 25.08 63.0105 25.08C62.5838 25.08 62.4238 24.9467 62.5305 24.68C63.1438 23.2933 63.7705 21.76 64.4105 20.08C65.0771 18.4 65.8238 16.68 66.6505 14.92C67.2638 13.5867 67.9438 12.2133 68.6905 10.8C69.4638 9.38667 70.3171 8.04 71.2505 6.76C72.1838 5.45333 73.2105 4.30667 74.3305 3.32C75.3171 2.46667 76.3971 1.77333 77.5705 1.24C78.7705 0.679999 80.0638 0.4 81.4505 0.4C82.0638 0.4 82.5971 0.533333 83.0505 0.799999C83.5038 1.04 83.7571 1.48 83.8105 2.12V2.48C83.8105 2.85333 83.7705 3.22667 83.6905 3.6C83.6638 3.70667 83.5571 3.76 83.3705 3.76C83.2905 3.76 83.2638 3.74667 83.2905 3.72C83.3971 3.02667 83.2105 2.53333 82.7305 2.24C82.2771 1.94667 81.6905 1.8 80.9705 1.8C79.6638 1.8 78.4638 2.04 77.3705 2.52C76.2771 3 75.2638 3.64 74.3305 4.44C72.8905 5.69333 71.6371 7.29333 70.5705 9.24C69.5038 11.1867 68.5838 13.1733 67.8105 15.2C67.4371 16.1867 67.0638 17.1733 66.6905 18.16C66.3438 19.1467 66.0105 20.0667 65.6905 20.92C66.8905 19.32 68.0371 17.9467 69.1305 16.8C70.2505 15.6533 71.2238 14.84 72.0505 14.36C72.7171 13.9867 73.3171 13.8 73.8505 13.8C74.3571 13.8 74.6105 14.0133 74.6105 14.44C74.6105 14.8133 74.4238 15.2933 74.0505 15.88C73.8638 16.1733 73.5705 16.6667 73.1705 17.36C72.7971 18.0533 72.3971 18.8133 71.9705 19.64C71.5705 20.44 71.2238 21.1867 70.9305 21.88C70.6371 22.5733 70.4905 23.08 70.4905 23.4C70.4905 23.8267 70.6771 24.04 71.0505 24.04C71.2638 24.04 71.5038 23.9733 71.7705 23.84C72.0638 23.7067 72.2771 23.5867 72.4105 23.48C73.1305 22.9467 73.8371 22.2933 74.5305 21.52C75.2238 20.7467 75.8105 20.0667 76.2905 19.48C76.3171 19.4533 76.3305 19.4933 76.3305 19.6C76.3305 19.7067 76.3038 19.8667 76.2505 20.08C76.2238 20.2667 76.1438 20.4267 76.0105 20.56C75.7171 20.96 75.4105 21.3467 75.0905 21.72C74.7971 22.0667 74.5038 22.4133 74.2105 22.76C73.7038 23.3467 73.0905 23.9067 72.3705 24.44C71.6771 24.9733 70.8905 25.24 70.0105 25.24ZM84.1683 9.72C83.7949 9.72 83.5283 9.6 83.3683 9.36C83.2616 9.22667 83.2083 9.05333 83.2083 8.84C83.2083 8.41333 83.4083 8.06667 83.8083 7.8C84.1016 7.64 84.3683 7.56 84.6083 7.56C85.0083 7.56 85.2883 7.68 85.4483 7.92C85.5549 8.05333 85.6083 8.22667 85.6083 8.44C85.6083 8.86667 85.3949 9.21333 84.9683 9.48C84.7283 9.64 84.4616 9.72 84.1683 9.72ZM77.2083 25.12C76.9416 25.12 76.7149 25.0667 76.5283 24.96C76.3683 24.8533 76.2883 24.6533 76.2883 24.36C76.2883 23.9867 76.3816 23.5467 76.5683 23.04C76.7816 22.5333 77.0083 22.0267 77.2483 21.52C77.5149 21.0133 77.7149 20.6 77.8483 20.28C78.0349 19.9067 78.2616 19.4267 78.5283 18.84C78.8216 18.2267 79.0883 17.6533 79.3283 17.12C79.5949 16.56 79.7816 16.1733 79.8883 15.96C79.5149 16.36 79.0616 16.8667 78.5283 17.48C78.0216 18.0667 77.5416 18.64 77.0883 19.2C76.6349 19.76 76.2883 20.2 76.0483 20.52C75.9683 20.6267 75.9016 20.68 75.8483 20.68C75.7949 20.68 75.7683 20.6133 75.7683 20.48C75.7683 20.2667 75.8349 20.0667 75.9683 19.88C76.4749 19.24 77.0349 18.52 77.6483 17.72C78.2883 16.92 78.8616 16.1867 79.3683 15.52C79.8749 14.8267 80.1949 14.3733 80.3283 14.16C80.6216 14.1067 81.0483 14.0267 81.6083 13.92C82.1949 13.8133 82.5949 13.6667 82.8083 13.48C82.8883 13.4 82.9683 13.36 83.0483 13.36C83.1016 13.36 83.1283 13.4133 83.1283 13.52C83.1549 13.6 83.1283 13.6933 83.0483 13.8C82.8883 13.9867 82.6083 14.44 82.2083 15.16C81.8083 15.88 81.3816 16.68 80.9283 17.56C80.5016 18.4133 80.1016 19.1867 79.7283 19.88C79.3549 20.6 79.0349 21.2933 78.7683 21.96C78.5016 22.6267 78.3683 23.1067 78.3683 23.4C78.3683 23.7733 78.5549 23.96 78.9283 23.96C79.2749 23.96 79.7149 23.7467 80.2483 23.32C80.8083 22.8933 81.3683 22.3867 81.9283 21.8C82.4883 21.1867 82.9816 20.6267 83.4083 20.12C83.5416 19.96 83.7016 19.7733 83.8883 19.56C84.1016 19.32 84.2349 19.1733 84.2883 19.12C84.3416 19.1733 84.3683 19.2667 84.3683 19.4C84.3416 19.5867 84.2749 19.7733 84.1683 19.96C84.0616 20.12 83.9549 20.2667 83.8483 20.4C83.2883 21.0933 82.6749 21.8133 82.0083 22.56C81.3416 23.28 80.6083 23.8933 79.8083 24.4C79.0083 24.88 78.1416 25.12 77.2083 25.12ZM85.1436 25.12C84.8769 25.12 84.6503 25.0667 84.4636 24.96C84.2769 24.8533 84.1836 24.6533 84.1836 24.36C84.1836 23.9867 84.2769 23.5467 84.4636 23.04C84.6769 22.5333 84.9036 22.0267 85.1436 21.52C85.3836 21.0133 85.5836 20.6 85.7436 20.28C85.8769 20.04 86.0503 19.6667 86.2636 19.16C86.5036 18.6267 86.7436 18.08 86.9836 17.52C87.2503 16.9333 87.4636 16.44 87.6236 16.04C87.8103 15.64 87.9036 15.44 87.9036 15.44C87.6636 15.7067 87.3436 16.08 86.9436 16.56C86.5703 17.04 86.1569 17.5467 85.7036 18.08C85.2769 18.5867 84.8769 19.0667 84.5036 19.52C84.1569 19.9733 83.9036 20.3067 83.7436 20.52C83.6636 20.6267 83.5969 20.68 83.5436 20.68C83.4903 20.68 83.4636 20.6133 83.4636 20.48C83.4636 20.2667 83.5303 20.0667 83.6636 19.88C83.9836 19.48 84.3703 19 84.8236 18.44C85.2769 17.8533 85.7303 17.2667 86.1836 16.68C86.6636 16.0933 87.0769 15.5733 87.4236 15.12C87.2103 15.12 86.9303 15.1333 86.5836 15.16C86.2636 15.1867 85.9703 15.2267 85.7036 15.28C85.4369 15.3067 85.2903 15.32 85.2636 15.32C85.1303 15.32 85.1436 15.2133 85.3036 15C85.4636 14.7867 85.6769 14.5733 85.9436 14.36C86.2103 14.1467 86.4103 14.04 86.5436 14.04C86.5703 14.04 86.7836 14.0533 87.1836 14.08C87.5836 14.08 87.8769 14.08 88.0636 14.08C88.5969 13.36 89.1169 12.5333 89.6236 11.6C90.1569 10.6667 90.6769 9.64 91.1836 8.52C91.3969 8.49333 91.7569 8.34667 92.2636 8.08C92.7969 7.78667 93.2103 7.49333 93.5036 7.2C93.6369 7.06667 93.7436 7 93.8236 7C93.9836 7 93.9836 7.10667 93.8236 7.32C93.6369 7.53333 93.3169 7.98667 92.8636 8.68C92.4103 9.34667 91.9036 10.16 91.3436 11.12C90.7836 12.0533 90.2503 13.04 89.7436 14.08H92.9836C93.2769 14.08 93.4236 14.12 93.4236 14.2C93.4236 14.3067 93.2236 14.4133 92.8236 14.52C92.3703 14.6533 91.8903 14.7333 91.3836 14.76C90.9036 14.7867 90.4503 14.84 90.0236 14.92C89.6236 15 89.3303 15.1733 89.1436 15.44C88.9836 15.6267 88.7569 16.0267 88.4636 16.64C88.1703 17.2533 87.8503 17.96 87.5036 18.76C87.1836 19.5333 86.9036 20.32 86.6636 21.12C86.4236 21.8933 86.2769 22.5467 86.2236 23.08V23.24C86.2236 23.4533 86.2903 23.6267 86.4236 23.76C86.5569 23.8933 86.6903 23.96 86.8236 23.96C87.1703 23.96 87.6103 23.7467 88.1436 23.32C88.7036 22.8933 89.2769 22.3867 89.8636 21.8C90.4503 21.1867 90.9569 20.6267 91.3836 20.12C91.5703 19.9067 91.7303 19.7067 91.8636 19.52C92.0236 19.3333 92.1169 19.2133 92.1436 19.16C92.1969 19.2667 92.2236 19.3467 92.2236 19.4C92.2236 19.56 92.1703 19.7333 92.0636 19.92C91.9836 20.1067 91.8903 20.2667 91.7836 20.4C91.2769 21.0667 90.6636 21.7733 89.9436 22.52C89.2236 23.24 88.4503 23.8533 87.6236 24.36C86.8236 24.8667 85.9969 25.12 85.1436 25.12ZM97.3933 25.24C96.9933 25.24 96.6333 25.16 96.3133 25C96.0199 24.84 95.8733 24.5467 95.8733 24.12C95.8733 23.88 95.9266 23.6133 96.0333 23.32C96.2733 22.7067 96.5933 21.96 96.9933 21.08C97.4199 20.2 97.8466 19.3467 98.2733 18.52C98.6999 17.6667 99.0333 16.9733 99.2733 16.44C99.4333 16.12 99.5133 15.8933 99.5133 15.76C99.5133 15.52 99.3799 15.4667 99.1133 15.6C98.8466 15.7333 98.5533 15.92 98.2333 16.16C97.9133 16.4 97.6733 16.5867 97.5133 16.72C96.8199 17.36 96.0866 18.12 95.3133 19C94.5666 19.8533 93.8733 20.76 93.2333 21.72C92.6199 22.6533 92.1399 23.5867 91.7933 24.52C91.7666 24.68 91.5933 24.8133 91.2733 24.92C90.9533 25.0267 90.6599 25.08 90.3933 25.08C89.9666 25.08 89.8066 24.9467 89.9133 24.68C90.5266 23.2933 91.1533 21.76 91.7933 20.08C92.4599 18.4 93.2066 16.68 94.0333 14.92C94.6466 13.5867 95.3266 12.2133 96.0733 10.8C96.8466 9.38667 97.6999 8.04 98.6333 6.76C99.5666 5.45333 100.593 4.30667 101.713 3.32C102.7 2.46667 103.78 1.77333 104.953 1.24C106.153 0.679999 107.447 0.4 108.833 0.4C109.447 0.4 109.98 0.533333 110.433 0.799999C110.887 1.04 111.14 1.48 111.193 2.12V2.48C111.193 2.85333 111.153 3.22667 111.073 3.6C111.047 3.70667 110.94 3.76 110.753 3.76C110.673 3.76 110.647 3.74667 110.673 3.72C110.78 3.02667 110.593 2.53333 110.113 2.24C109.66 1.94667 109.073 1.8 108.353 1.8C107.047 1.8 105.847 2.04 104.753 2.52C103.66 3 102.647 3.64 101.713 4.44C100.273 5.69333 99.0199 7.29333 97.9533 9.24C96.8866 11.1867 95.9666 13.1733 95.1933 15.2C94.8199 16.1867 94.4466 17.1733 94.0733 18.16C93.7266 19.1467 93.3933 20.0667 93.0733 20.92C94.2733 19.32 95.4199 17.9467 96.5133 16.8C97.6333 15.6533 98.6066 14.84 99.4333 14.36C100.1 13.9867 100.7 13.8 101.233 13.8C101.74 13.8 101.993 14.0133 101.993 14.44C101.993 14.8133 101.807 15.2933 101.433 15.88C101.247 16.1733 100.953 16.6667 100.553 17.36C100.18 18.0533 99.7799 18.8133 99.3533 19.64C98.9533 20.44 98.6066 21.1867 98.3133 21.88C98.0199 22.5733 97.8733 23.08 97.8733 23.4C97.8733 23.8267 98.0599 24.04 98.4333 24.04C98.6466 24.04 98.8866 23.9733 99.1533 23.84C99.4466 23.7067 99.6599 23.5867 99.7933 23.48C100.513 22.9467 101.22 22.2933 101.913 21.52C102.607 20.7467 103.193 20.0667 103.673 19.48C103.7 19.4533 103.713 19.4933 103.713 19.6C103.713 19.7067 103.687 19.8667 103.633 20.08C103.607 20.2667 103.527 20.4267 103.393 20.56C103.1 20.96 102.793 21.3467 102.473 21.72C102.18 22.0667 101.887 22.4133 101.593 22.76C101.087 23.3467 100.473 23.9067 99.7533 24.44C99.0599 24.9733 98.2733 25.24 97.3933 25.24ZM108.671 25.12C108.404 25.12 108.178 25.0667 107.991 24.96C107.804 24.8533 107.711 24.6533 107.711 24.36C107.711 23.9867 107.804 23.56 107.991 23.08C108.178 22.6 108.391 22.1333 108.631 21.68C108.871 21.2 109.084 20.8133 109.271 20.52C108.338 21.5067 107.364 22.44 106.351 23.32C105.844 23.7467 105.284 24.1467 104.671 24.52C104.058 24.8933 103.404 25.08 102.711 25.08C102.444 25.08 102.258 25 102.151 24.84C102.044 24.6533 101.991 24.44 101.991 24.2C101.991 24.0667 102.004 23.9733 102.031 23.92C102.164 22.88 102.498 21.8 103.031 20.68C103.564 19.56 104.218 18.5067 104.991 17.52C105.764 16.5333 106.551 15.7333 107.351 15.12C108.258 14.4267 109.258 14.08 110.351 14.08H114.951C115.084 14.08 115.151 14.1333 115.151 14.24C115.151 14.4533 115.031 14.56 114.791 14.56C114.524 14.56 114.258 14.7333 113.991 15.08C113.724 15.4 113.524 15.6667 113.391 15.88C113.204 16.1733 112.911 16.6667 112.511 17.36C112.111 18.0533 111.698 18.8133 111.271 19.64C110.871 20.44 110.524 21.1867 110.231 21.88C109.938 22.5733 109.791 23.08 109.791 23.4C109.791 23.7733 109.978 23.96 110.351 23.96C110.751 23.96 111.204 23.7733 111.711 23.4C112.218 23.0267 112.724 22.5733 113.231 22.04C113.764 21.48 114.244 20.9333 114.671 20.4C115.124 19.84 115.484 19.4 115.751 19.08C115.911 19.24 115.898 19.4667 115.711 19.76C115.551 20.0267 115.404 20.24 115.271 20.4C114.738 21.0933 114.124 21.8133 113.431 22.56C112.738 23.28 111.978 23.8933 111.151 24.4C110.351 24.88 109.524 25.12 108.671 25.12ZM104.351 23.72C104.671 23.72 105.111 23.4933 105.671 23.04C106.258 22.56 106.884 21.9733 107.551 21.28C108.218 20.56 108.844 19.8133 109.431 19.04C110.018 18.24 110.498 17.52 110.871 16.88C111.271 16.2133 111.471 15.7067 111.471 15.36C111.471 15.0667 111.378 14.8667 111.191 14.76C111.031 14.6533 110.818 14.6 110.551 14.6C110.124 14.6 109.658 14.76 109.151 15.08C108.671 15.3733 108.284 15.6667 107.991 15.96C107.671 16.2533 107.284 16.72 106.831 17.36C106.404 17.9733 105.978 18.6533 105.551 19.4C105.124 20.1467 104.764 20.8667 104.471 21.56C104.178 22.2533 104.031 22.8133 104.031 23.24C104.031 23.56 104.138 23.72 104.351 23.72ZM120.947 25.76C120.76 25.76 120.613 25.7067 120.507 25.6C120.4 25.52 120.4 25.4533 120.507 25.4C121.093 25.2933 121.6 25.08 122.027 24.76C122.453 24.4133 122.8 23.9867 123.067 23.48C123.627 22.5467 124.173 21.6133 124.707 20.68C125.267 19.72 125.8 18.76 126.307 17.8C126.92 16.6267 127.547 15.4533 128.187 14.28C128.827 13.08 129.467 11.8933 130.107 10.72C130.72 9.62667 131.267 8.57333 131.747 7.56C132.227 6.54667 132.587 5.81333 132.827 5.36C133.013 5.01333 133.333 4.70667 133.787 4.44C134.267 4.14667 134.733 3.92 135.187 3.76C135.027 3.76 134.867 3.76 134.707 3.76C134.547 3.73333 134.373 3.72 134.187 3.72C133.36 3.72 132.453 3.77333 131.467 3.88C130.507 3.96 129.56 4.09333 128.627 4.28C127.72 4.46667 126.92 4.72 126.227 5.04C125.533 5.36 125.067 5.74667 124.827 6.2C124.72 6.44 124.627 6.68 124.547 6.92C124.467 7.16 124.427 7.4 124.427 7.64C124.427 8.25333 124.64 8.69333 125.067 8.96C125.093 8.96 125.107 8.98667 125.107 9.04C125.107 9.09333 125.053 9.14667 124.947 9.2C124.867 9.25333 124.8 9.26667 124.747 9.24C124.48 9.10667 124.173 8.78667 123.827 8.28C123.507 7.74667 123.293 7.30667 123.187 6.96C123.107 6.64 123.067 6.34667 123.067 6.08C123.067 5.38667 123.293 4.85333 123.747 4.48C124.2 4.08 124.773 3.8 125.467 3.64C126.16 3.45333 126.867 3.34667 127.587 3.32C128.333 3.26667 128.987 3.24 129.547 3.24C130.4 3.24 131.413 3.24 132.587 3.24C133.76 3.21333 134.84 3.2 135.827 3.2C136.067 3.2 136.333 3.2 136.627 3.2C136.92 3.17333 137.227 3.16 137.547 3.16C138.267 3.16 139.013 3.2 139.787 3.28C140.56 3.36 141.267 3.53333 141.907 3.8C142.547 4.06667 143.04 4.48 143.387 5.04C143.92 5.86667 144.187 6.74667 144.187 7.68C144.187 8.72 143.88 9.70667 143.267 10.64C142.68 11.5467 141.933 12.3467 141.027 13.04C140.12 13.7333 139.2 14.2667 138.267 14.64C137.387 14.9867 136.4 15.2267 135.307 15.36C134.24 15.4933 133.28 15.56 132.427 15.56C132.16 15.56 131.893 15.56 131.627 15.56C131.387 15.5333 131.173 15.5067 130.987 15.48C130.933 15.48 130.907 15.4533 130.907 15.4C130.907 15.2933 131.013 15.1467 131.227 14.96C131.44 14.7467 131.613 14.6533 131.747 14.68C131.96 14.7067 132.173 14.72 132.387 14.72C132.6 14.72 132.827 14.72 133.067 14.72C134.08 14.72 135.16 14.5867 136.307 14.32C137.453 14.0533 138.507 13.5467 139.467 12.8C140.453 12.0267 141.2 10.9067 141.707 9.44C141.84 9.12 141.92 8.8 141.947 8.48C142 8.13333 142.027 7.8 142.027 7.48C142.027 6.57333 141.8 5.77333 141.347 5.08C140.893 4.38667 140.24 3.98667 139.387 3.88C139.28 3.85333 139.16 3.84 139.027 3.84C138.893 3.84 138.76 3.84 138.627 3.84C138.12 3.84 137.56 3.90666 136.947 4.04C136.36 4.17333 135.92 4.42667 135.627 4.8C134.96 5.68 134.32 6.68 133.707 7.8C133.093 8.89333 132.507 10.0133 131.947 11.16C131.387 12.28 130.853 13.3333 130.347 14.32C130.213 14.5867 129.96 15.0667 129.587 15.76C129.213 16.4267 128.8 17.2 128.347 18.08C127.893 18.9333 127.467 19.7867 127.067 20.64C126.667 21.4933 126.347 22.2533 126.107 22.92C125.893 23.5867 125.84 24.04 125.947 24.28C125.973 24.3067 125.987 24.3467 125.987 24.4C125.987 24.48 125.947 24.52 125.867 24.52C125.653 24.52 125.44 24.4667 125.227 24.36C125.013 24.2533 124.76 24.2 124.467 24.2C124.2 24.2 123.933 24.2667 123.667 24.4C123.4 24.5067 123.053 24.7067 122.627 25C122.2 25.2933 121.72 25.5333 121.187 25.72C121.133 25.7467 121.053 25.76 120.947 25.76ZM145.667 25.32C144.574 25.32 143.814 25.1067 143.387 24.68C142.961 24.2533 142.747 23.7333 142.747 23.12C142.747 22.3467 142.947 21.52 143.347 20.64C143.774 19.76 144.174 19.0133 144.547 18.4C144.974 17.76 145.547 17.0933 146.267 16.4C146.987 15.7067 147.774 15.12 148.627 14.64C149.481 14.16 150.307 13.92 151.107 13.92C151.801 13.92 152.281 14.0933 152.547 14.44C152.814 14.76 152.947 15.1467 152.947 15.6C152.947 16.4267 152.694 17.1067 152.187 17.64C151.707 18.1733 151.107 18.6133 150.387 18.96C149.667 19.28 148.974 19.5467 148.307 19.76C147.907 19.8667 147.441 19.9733 146.907 20.08C146.374 20.1867 145.867 20.24 145.387 20.24C145.201 20.72 145.054 21.1867 144.947 21.64C144.841 22.0933 144.787 22.5067 144.787 22.88C144.787 23.3333 144.894 23.7067 145.107 24C145.347 24.2933 145.734 24.44 146.267 24.44C146.481 24.44 146.734 24.4133 147.027 24.36C147.321 24.3067 147.641 24.2267 147.987 24.12C148.787 23.8533 149.574 23.4267 150.347 22.84C151.121 22.2533 151.827 21.6267 152.467 20.96C153.134 20.2667 153.641 19.6933 153.987 19.24C154.067 19.32 154.107 19.4133 154.107 19.52C154.107 19.6533 154.014 19.8667 153.827 20.16C153.294 20.9067 152.601 21.68 151.747 22.48C150.894 23.28 149.947 23.96 148.907 24.52C147.867 25.0533 146.787 25.32 145.667 25.32ZM145.707 19.44C146.054 19.4667 146.441 19.4667 146.867 19.44C147.321 19.3867 147.761 19.2933 148.187 19.16C149.281 18.84 150.067 18.3333 150.547 17.64C151.054 16.92 151.307 16.28 151.307 15.72C151.307 15.4 151.241 15.1333 151.107 14.92C150.974 14.7067 150.761 14.6 150.467 14.6C149.694 14.6 149.001 14.8933 148.387 15.48C147.774 16.04 147.241 16.6933 146.787 17.44C146.334 18.1867 145.974 18.8533 145.707 19.44ZM153.588 25.56C153.482 25.56 153.482 25.4533 153.588 25.24C153.722 25 153.842 24.7333 153.948 24.44C154.082 24.1467 154.215 23.8267 154.348 23.48C154.615 22.84 154.908 22.12 155.228 21.32C155.548 20.52 155.855 19.7467 156.148 19C156.442 18.2267 156.695 17.5733 156.908 17.04C157.148 16.48 157.308 16.12 157.388 15.96C157.015 16.36 156.562 16.8667 156.028 17.48C155.522 18.0667 155.042 18.64 154.588 19.2C154.135 19.76 153.788 20.2 153.548 20.52C153.468 20.6267 153.402 20.68 153.348 20.68C153.295 20.68 153.268 20.6133 153.268 20.48C153.268 20.2667 153.335 20.0667 153.468 19.88C153.975 19.24 154.535 18.52 155.148 17.72C155.788 16.92 156.362 16.1867 156.868 15.52C157.375 14.8267 157.695 14.3733 157.828 14.16C158.122 14.1067 158.548 14.0267 159.108 13.92C159.695 13.8133 160.095 13.6667 160.308 13.48C160.388 13.4 160.468 13.36 160.548 13.36C160.602 13.36 160.628 13.4133 160.628 13.52C160.655 13.6 160.628 13.6933 160.548 13.8C160.388 13.96 160.148 14.3067 159.828 14.84C159.535 15.3733 159.202 15.9867 158.828 16.68C158.455 17.3733 158.095 18.04 157.748 18.68C158.015 18.28 158.362 17.8133 158.788 17.28C159.242 16.72 159.735 16.1867 160.268 15.68C160.802 15.1467 161.335 14.7067 161.868 14.36C162.428 14.0133 162.948 13.84 163.428 13.84C163.775 13.84 164.068 13.92 164.308 14.08C164.548 14.2133 164.735 14.4667 164.868 14.84C164.948 15.0267 164.988 15.24 164.988 15.48C164.988 15.9333 164.868 16.3733 164.628 16.8C164.415 17.2 164.255 17.5067 164.148 17.72C164.122 17.8 164.028 17.88 163.868 17.96C163.708 18.0133 163.642 17.9867 163.668 17.88C163.695 17.7467 163.708 17.6133 163.708 17.48C163.735 17.3467 163.748 17.2 163.748 17.04C163.748 16.5867 163.655 16.1733 163.468 15.8C163.308 15.4267 163.002 15.24 162.548 15.24C162.122 15.24 161.602 15.5067 160.988 16.04C160.375 16.5733 159.762 17.1867 159.148 17.88C158.375 18.7867 157.762 19.6533 157.308 20.48C156.855 21.28 156.482 22.0667 156.188 22.84C156.028 23.2667 155.868 23.6933 155.708 24.12C155.548 24.52 155.428 24.84 155.348 25.08C155.002 25.1067 154.655 25.1867 154.308 25.32C153.962 25.48 153.722 25.56 153.588 25.56ZM166.487 25.12C166.22 25.12 165.993 25.0667 165.807 24.96C165.62 24.8533 165.527 24.6533 165.527 24.36C165.527 23.9867 165.62 23.5467 165.807 23.04C166.02 22.5333 166.247 22.0267 166.487 21.52C166.727 21.0133 166.927 20.6 167.087 20.28C167.407 19.6667 167.713 19.0533 168.007 18.44C168.3 17.8267 168.553 17.3067 168.767 16.88C168.98 16.48 169.087 16.2133 169.087 16.08C169.087 15.8667 168.927 15.8667 168.607 16.08C168.313 16.2933 168.033 16.5067 167.767 16.72C167.18 17.28 166.567 17.9467 165.927 18.72C165.287 19.4667 164.793 20.0667 164.447 20.52C164.367 20.6267 164.3 20.68 164.247 20.68C164.193 20.68 164.167 20.6133 164.167 20.48C164.167 20.2667 164.233 20.0667 164.367 19.88C164.74 19.3467 165.18 18.76 165.687 18.12C166.193 17.48 166.713 16.8667 167.247 16.28C167.753 15.7467 168.273 15.2267 168.807 14.72C169.34 14.2133 170.02 13.96 170.847 13.96C171.407 13.96 171.687 14.1733 171.687 14.6C171.687 14.9733 171.527 15.4 171.207 15.88C171.02 16.1733 170.727 16.6667 170.327 17.36C169.927 18.0533 169.513 18.8133 169.087 19.64C168.687 20.44 168.34 21.1867 168.047 21.88C167.753 22.5733 167.607 23.08 167.607 23.4C167.607 23.7733 167.793 23.96 168.167 23.96C168.46 23.96 168.82 23.8133 169.247 23.52C169.673 23.2 170.113 22.8267 170.567 22.4C171.393 21.6 172.14 20.7333 172.807 19.8C173.5 18.84 174.087 17.92 174.567 17.04C175.073 16.16 175.473 15.44 175.767 14.88C175.82 14.7733 175.873 14.6533 175.927 14.52C176.007 14.36 176.127 14.2667 176.287 14.24C176.447 14.2133 176.793 14.2 177.327 14.2C177.86 14.2 178.353 14.0933 178.807 13.88H178.887C178.967 13.88 179.007 13.92 179.007 14C179.007 14.2133 178.833 14.3733 178.487 14.48C178.167 14.5867 177.793 14.9067 177.367 15.44C176.967 15.9733 176.567 16.6267 176.167 17.4C175.767 18.1467 175.407 18.92 175.087 19.72C174.767 20.52 174.527 21.2533 174.367 21.92C174.207 22.5867 174.167 23.08 174.247 23.4C174.353 23.7733 174.54 23.96 174.807 23.96C175.153 23.96 175.633 23.7467 176.247 23.32C176.887 22.8933 177.54 22.3867 178.207 21.8C178.873 21.1867 179.42 20.6267 179.847 20.12C180.033 19.9067 180.207 19.6933 180.367 19.48C180.527 19.2667 180.633 19.1333 180.687 19.08C180.713 19.1067 180.74 19.16 180.767 19.24C180.793 19.2933 180.807 19.3467 180.807 19.4C180.78 19.5867 180.713 19.7733 180.607 19.96C180.5 20.12 180.38 20.2667 180.247 20.4C179.74 21.0667 179.127 21.7733 178.407 22.52C177.713 23.24 176.953 23.8533 176.127 24.36C175.327 24.8667 174.5 25.12 173.647 25.12C173.38 25.12 173.073 25.0533 172.727 24.92C172.407 24.7867 172.247 24.4933 172.247 24.04C172.247 23.6933 172.34 23.2267 172.527 22.64C172.713 22.0267 172.913 21.4267 173.127 20.84C173.367 20.2267 173.567 19.7733 173.727 19.48C173.38 19.9867 172.953 20.56 172.447 21.2C171.967 21.8133 171.473 22.36 170.967 22.84C170.3 23.48 169.58 24.0267 168.807 24.48C168.06 24.9067 167.287 25.12 166.487 25.12ZM180.19 25.6C180.083 25.6 180.083 25.48 180.19 25.24C180.323 25 180.443 24.7333 180.55 24.44C180.683 24.1467 180.817 23.8267 180.95 23.48C181.217 22.84 181.51 22.12 181.83 21.32C182.15 20.52 182.457 19.7467 182.75 19C183.043 18.2267 183.297 17.5733 183.51 17.04C183.75 16.48 183.91 16.12 183.99 15.96C183.617 16.36 183.163 16.8667 182.63 17.48C182.123 18.0667 181.643 18.64 181.19 19.2C180.737 19.76 180.39 20.2 180.15 20.52C180.07 20.6267 180.003 20.68 179.95 20.68C179.897 20.68 179.87 20.6133 179.87 20.48C179.87 20.2667 179.937 20.0667 180.07 19.88C180.577 19.24 181.137 18.52 181.75 17.72C182.39 16.92 182.963 16.1867 183.47 15.52C183.977 14.8267 184.297 14.3733 184.43 14.16C184.723 14.1067 185.15 14.0267 185.71 13.92C186.297 13.8133 186.697 13.6667 186.91 13.48C186.99 13.4 187.07 13.36 187.15 13.36C187.203 13.36 187.23 13.4133 187.23 13.52C187.257 13.6 187.23 13.6933 187.15 13.8C186.99 13.9867 186.71 14.4267 186.31 15.12C185.937 15.7867 185.523 16.5333 185.07 17.36C184.643 18.1867 184.243 18.9333 183.87 19.6C184.297 19.0933 184.71 18.6133 185.11 18.16C185.537 17.7067 185.83 17.3867 185.99 17.2C186.31 16.88 186.75 16.48 187.31 16C187.87 15.52 188.457 15.08 189.07 14.68C189.683 14.28 190.217 14.0533 190.67 14C190.777 13.9733 190.87 13.96 190.95 13.96C191.03 13.96 191.11 13.96 191.19 13.96C191.697 13.96 191.95 14.1467 191.95 14.52C191.95 14.68 191.91 14.8667 191.83 15.08C191.75 15.2933 191.643 15.5067 191.51 15.72C191.35 16.04 191.083 16.5467 190.71 17.24C190.337 17.9067 190.003 18.52 189.71 19.08L191.59 17.2C191.91 16.88 192.35 16.48 192.91 16C193.47 15.52 194.057 15.08 194.67 14.68C195.283 14.28 195.817 14.0533 196.27 14C196.377 13.9733 196.47 13.96 196.55 13.96C196.657 13.96 196.737 13.96 196.79 13.96C197.377 13.96 197.67 14.1733 197.67 14.6C197.67 14.92 197.497 15.3467 197.15 15.88C196.963 16.1733 196.67 16.6667 196.27 17.36C195.87 18.0533 195.457 18.8133 195.03 19.64C194.63 20.44 194.283 21.1867 193.99 21.88C193.697 22.5733 193.55 23.08 193.55 23.4C193.55 23.7733 193.737 23.96 194.11 23.96C194.457 23.96 194.897 23.76 195.43 23.36C195.99 22.9333 196.55 22.4267 197.11 21.84C197.697 21.2533 198.203 20.6933 198.63 20.16C198.817 19.9467 198.99 19.7333 199.15 19.52C199.337 19.28 199.443 19.1467 199.47 19.12C199.523 19.1733 199.55 19.2667 199.55 19.4C199.55 19.5867 199.483 19.7733 199.35 19.96C199.243 20.12 199.137 20.2667 199.03 20.4C198.523 21.0667 197.937 21.76 197.27 22.48C196.63 23.2 195.923 23.8133 195.15 24.32C194.377 24.8 193.55 25.08 192.67 25.16C192.403 25.1867 192.137 25.1333 191.87 25C191.603 24.8667 191.47 24.6533 191.47 24.36C191.47 23.9867 191.563 23.5467 191.75 23.04C191.963 22.5333 192.19 22.0267 192.43 21.52C192.697 21.0133 192.897 20.6 193.03 20.28C193.51 19.3467 193.95 18.4667 194.35 17.64C194.75 16.8133 195.03 16.2267 195.19 15.88C195.27 15.72 195.31 15.5867 195.31 15.48C195.31 15.2933 195.163 15.28 194.87 15.44C194.577 15.6 194.217 15.84 193.79 16.16C193.39 16.48 193.017 16.8 192.67 17.12C192.323 17.4133 192.097 17.6133 191.99 17.72C191.537 18.1733 190.99 18.7867 190.35 19.56C189.737 20.3333 189.163 21.1467 188.63 22C188.097 22.8267 187.723 23.6 187.51 24.32C187.243 24.56 186.99 24.68 186.75 24.68C186.563 24.68 186.403 24.6133 186.27 24.48C186.163 24.3467 186.11 24.1867 186.11 24C186.11 23.4667 186.27 22.84 186.59 22.12C186.937 21.3733 187.217 20.76 187.43 20.28C187.91 19.3467 188.35 18.4667 188.75 17.64C189.15 16.8133 189.43 16.2267 189.59 15.88C189.67 15.72 189.71 15.5867 189.71 15.48C189.71 15.2933 189.563 15.28 189.27 15.44C188.977 15.6 188.617 15.84 188.19 16.16C187.79 16.48 187.417 16.8 187.07 17.12C186.723 17.4133 186.497 17.6133 186.39 17.72C185.75 18.3867 185.15 19.0667 184.59 19.76C184.057 20.4533 183.603 21.2 183.23 22C183.017 22.48 182.79 23.0133 182.55 23.6C182.31 24.1867 182.11 24.68 181.95 25.08C181.603 25.1067 181.257 25.2 180.91 25.36C180.563 25.52 180.323 25.6 180.19 25.6ZM204.179 25.12C203.912 25.12 203.686 25.0667 203.499 24.96C203.312 24.8533 203.219 24.6533 203.219 24.36C203.219 23.9867 203.312 23.56 203.499 23.08C203.686 22.6 203.899 22.1333 204.139 21.68C204.379 21.2 204.592 20.8133 204.779 20.52C203.846 21.5067 202.872 22.44 201.859 23.32C201.352 23.7467 200.792 24.1467 200.179 24.52C199.566 24.8933 198.912 25.08 198.219 25.08C197.952 25.08 197.766 25 197.659 24.84C197.552 24.6533 197.499 24.44 197.499 24.2C197.499 24.0667 197.512 23.9733 197.539 23.92C197.672 22.88 198.006 21.8 198.539 20.68C199.072 19.56 199.726 18.5067 200.499 17.52C201.272 16.5333 202.059 15.7333 202.859 15.12C203.766 14.4267 204.766 14.08 205.859 14.08H210.459C210.592 14.08 210.659 14.1333 210.659 14.24C210.659 14.4533 210.539 14.56 210.299 14.56C210.032 14.56 209.766 14.7333 209.499 15.08C209.232 15.4 209.032 15.6667 208.899 15.88C208.712 16.1733 208.419 16.6667 208.019 17.36C207.619 18.0533 207.206 18.8133 206.779 19.64C206.379 20.44 206.032 21.1867 205.739 21.88C205.446 22.5733 205.299 23.08 205.299 23.4C205.299 23.7733 205.486 23.96 205.859 23.96C206.259 23.96 206.712 23.7733 207.219 23.4C207.726 23.0267 208.232 22.5733 208.739 22.04C209.272 21.48 209.752 20.9333 210.179 20.4C210.632 19.84 210.992 19.4 211.259 19.08C211.419 19.24 211.406 19.4667 211.219 19.76C211.059 20.0267 210.912 20.24 210.779 20.4C210.246 21.0933 209.632 21.8133 208.939 22.56C208.246 23.28 207.486 23.8933 206.659 24.4C205.859 24.88 205.032 25.12 204.179 25.12ZM199.859 23.72C200.179 23.72 200.619 23.4933 201.179 23.04C201.766 22.56 202.392 21.9733 203.059 21.28C203.726 20.56 204.352 19.8133 204.939 19.04C205.526 18.24 206.006 17.52 206.379 16.88C206.779 16.2133 206.979 15.7067 206.979 15.36C206.979 15.0667 206.886 14.8667 206.699 14.76C206.539 14.6533 206.326 14.6 206.059 14.6C205.632 14.6 205.166 14.76 204.659 15.08C204.179 15.3733 203.792 15.6667 203.499 15.96C203.179 16.2533 202.792 16.72 202.339 17.36C201.912 17.9733 201.486 18.6533 201.059 19.4C200.632 20.1467 200.272 20.8667 199.979 21.56C199.686 22.2533 199.539 22.8133 199.539 23.24C199.539 23.56 199.646 23.72 199.859 23.72ZM213.137 25.08C212.337 25.08 211.79 24.8933 211.497 24.52C211.203 24.12 211.057 23.64 211.057 23.08C211.057 22.3333 211.217 21.5333 211.537 20.68C211.883 19.8267 212.163 19.16 212.377 18.68C212.03 19.0533 211.697 19.4133 211.377 19.76C211.057 20.1067 210.83 20.36 210.697 20.52C210.617 20.6267 210.55 20.68 210.497 20.68C210.443 20.68 210.417 20.6133 210.417 20.48C210.417 20.2667 210.483 20.0667 210.617 19.88C210.99 19.4 211.417 18.8933 211.897 18.36C212.377 17.8267 212.843 17.2667 213.297 16.68C213.83 15.6933 214.417 14.5467 215.057 13.24C215.723 11.9067 216.403 10.5467 217.097 9.16C217.817 7.74667 218.51 6.45333 219.177 5.28C219.87 4.08 220.483 3.12 221.017 2.4C221.47 2.21333 221.897 1.97333 222.297 1.68C222.723 1.38667 223.137 1.12 223.537 0.879998C223.963 0.613332 224.403 0.479999 224.857 0.479999C225.15 0.479999 225.363 0.559998 225.497 0.719998C225.657 0.879999 225.763 1.06667 225.817 1.28C225.843 1.36 225.857 1.50667 225.857 1.72C225.857 2.33333 225.643 3.08 225.217 3.96C224.817 4.84 224.337 5.70667 223.777 6.56C223.243 7.38667 222.777 8.06667 222.377 8.6C221.31 10.0933 220.217 11.4533 219.097 12.68C217.977 13.88 216.963 14.8933 216.057 15.72C215.177 16.52 214.537 17.1067 214.137 17.48C213.95 17.8267 213.723 18.2933 213.457 18.88C213.217 19.44 213.003 20.04 212.817 20.68C212.63 21.2933 212.537 21.8667 212.537 22.4C212.537 22.8533 212.643 23.24 212.857 23.56C213.07 23.8533 213.43 24 213.937 24C214.017 24 214.097 24 214.177 24C214.257 24 214.35 23.9867 214.457 23.96C214.91 23.88 215.403 23.6267 215.937 23.2C216.47 22.7733 217.003 22.28 217.537 21.72C218.07 21.16 218.55 20.6267 218.977 20.12C219.163 19.9067 219.337 19.7067 219.497 19.52C219.657 19.3067 219.763 19.16 219.817 19.08C220.003 19.2667 219.99 19.5067 219.777 19.8C219.59 20.0667 219.43 20.2933 219.297 20.48C219.11 20.72 218.843 21.0533 218.497 21.48C218.15 21.88 217.75 22.32 217.297 22.8C216.79 23.3067 216.163 23.8133 215.417 24.32C214.67 24.8267 213.91 25.08 213.137 25.08ZM214.817 15.88C215.643 15.1867 216.683 14.2 217.937 12.92C219.217 11.6133 220.47 10.04 221.697 8.2C221.83 7.98667 222.043 7.62667 222.337 7.12C222.657 6.61333 222.977 6.04 223.297 5.4C223.643 4.73333 223.937 4.09333 224.177 3.48C224.417 2.84 224.537 2.29333 224.537 1.84C224.537 1.41333 224.417 1.2 224.177 1.2C223.883 1.2 223.497 1.45333 223.017 1.96C222.457 2.54667 221.817 3.41333 221.097 4.56C220.403 5.68 219.67 6.93333 218.897 8.32C218.123 9.70667 217.377 11.0667 216.657 12.4C215.963 13.7333 215.35 14.8933 214.817 15.88ZM221.691 25.08C220.891 25.08 220.345 24.8933 220.051 24.52C219.758 24.12 219.611 23.64 219.611 23.08C219.611 22.3333 219.771 21.5333 220.091 20.68C220.438 19.8267 220.718 19.16 220.931 18.68C220.585 19.0533 220.251 19.4133 219.931 19.76C219.611 20.1067 219.385 20.36 219.251 20.52C219.171 20.6267 219.105 20.68 219.051 20.68C218.998 20.68 218.971 20.6133 218.971 20.48C218.971 20.2667 219.038 20.0667 219.171 19.88C219.545 19.4 219.971 18.8933 220.451 18.36C220.931 17.8267 221.398 17.2667 221.851 16.68C222.385 15.6933 222.971 14.5467 223.611 13.24C224.278 11.9067 224.958 10.5467 225.651 9.16C226.371 7.74667 227.065 6.45333 227.731 5.28C228.425 4.08 229.038 3.12 229.571 2.4C230.025 2.21333 230.451 1.97333 230.851 1.68C231.278 1.38667 231.691 1.12 232.091 0.879998C232.518 0.613332 232.958 0.479999 233.411 0.479999C233.705 0.479999 233.918 0.559998 234.051 0.719998C234.211 0.879999 234.318 1.06667 234.371 1.28C234.398 1.36 234.411 1.50667 234.411 1.72C234.411 2.33333 234.198 3.08 233.771 3.96C233.371 4.84 232.891 5.70667 232.331 6.56C231.798 7.38667 231.331 8.06667 230.931 8.6C229.865 10.0933 228.771 11.4533 227.651 12.68C226.531 13.88 225.518 14.8933 224.611 15.72C223.731 16.52 223.091 17.1067 222.691 17.48C222.505 17.8267 222.278 18.2933 222.011 18.88C221.771 19.44 221.558 20.04 221.371 20.68C221.185 21.2933 221.091 21.8667 221.091 22.4C221.091 22.8533 221.198 23.24 221.411 23.56C221.625 23.8533 221.985 24 222.491 24C222.571 24 222.651 24 222.731 24C222.811 24 222.905 23.9867 223.011 23.96C223.465 23.88 223.958 23.6267 224.491 23.2C225.025 22.7733 225.558 22.28 226.091 21.72C226.625 21.16 227.105 20.6267 227.531 20.12C227.718 19.9067 227.891 19.7067 228.051 19.52C228.211 19.3067 228.318 19.16 228.371 19.08C228.558 19.2667 228.545 19.5067 228.331 19.8C228.145 20.0667 227.985 20.2933 227.851 20.48C227.665 20.72 227.398 21.0533 227.051 21.48C226.705 21.88 226.305 22.32 225.851 22.8C225.345 23.3067 224.718 23.8133 223.971 24.32C223.225 24.8267 222.465 25.08 221.691 25.08ZM223.371 15.88C224.198 15.1867 225.238 14.2 226.491 12.92C227.771 11.6133 229.025 10.04 230.251 8.2C230.385 7.98667 230.598 7.62667 230.891 7.12C231.211 6.61333 231.531 6.04 231.851 5.4C232.198 4.73333 232.491 4.09333 232.731 3.48C232.971 2.84 233.091 2.29333 233.091 1.84C233.091 1.41333 232.971 1.2 232.731 1.2C232.438 1.2 232.051 1.45333 231.571 1.96C231.011 2.54667 230.371 3.41333 229.651 4.56C228.958 5.68 228.225 6.93333 227.451 8.32C226.678 9.70667 225.931 11.0667 225.211 12.4C224.518 13.7333 223.905 14.8933 223.371 15.88ZM233.046 25.12C232.779 25.12 232.553 25.0667 232.366 24.96C232.179 24.8533 232.086 24.6533 232.086 24.36C232.086 23.9867 232.179 23.56 232.366 23.08C232.553 22.6 232.766 22.1333 233.006 21.68C233.246 21.2 233.459 20.8133 233.646 20.52C232.713 21.5067 231.739 22.44 230.726 23.32C230.219 23.7467 229.659 24.1467 229.046 24.52C228.433 24.8933 227.779 25.08 227.086 25.08C226.819 25.08 226.633 25 226.526 24.84C226.419 24.6533 226.366 24.44 226.366 24.2C226.366 24.0667 226.379 23.9733 226.406 23.92C226.539 22.88 226.873 21.8 227.406 20.68C227.939 19.56 228.593 18.5067 229.366 17.52C230.139 16.5333 230.926 15.7333 231.726 15.12C232.633 14.4267 233.633 14.08 234.726 14.08H239.326C239.459 14.08 239.526 14.1333 239.526 14.24C239.526 14.4533 239.406 14.56 239.166 14.56C238.899 14.56 238.633 14.7333 238.366 15.08C238.099 15.4 237.899 15.6667 237.766 15.88C237.579 16.1733 237.286 16.6667 236.886 17.36C236.486 18.0533 236.073 18.8133 235.646 19.64C235.246 20.44 234.899 21.1867 234.606 21.88C234.313 22.5733 234.166 23.08 234.166 23.4C234.166 23.7733 234.353 23.96 234.726 23.96C235.126 23.96 235.579 23.7733 236.086 23.4C236.593 23.0267 237.099 22.5733 237.606 22.04C238.139 21.48 238.619 20.9333 239.046 20.4C239.499 19.84 239.859 19.4 240.126 19.08C240.286 19.24 240.273 19.4667 240.086 19.76C239.926 20.0267 239.779 20.24 239.646 20.4C239.113 21.0933 238.499 21.8133 237.806 22.56C237.113 23.28 236.353 23.8933 235.526 24.4C234.726 24.88 233.899 25.12 233.046 25.12ZM228.726 23.72C229.046 23.72 229.486 23.4933 230.046 23.04C230.633 22.56 231.259 21.9733 231.926 21.28C232.593 20.56 233.219 19.8133 233.806 19.04C234.393 18.24 234.873 17.52 235.246 16.88C235.646 16.2133 235.846 15.7067 235.846 15.36C235.846 15.0667 235.753 14.8667 235.566 14.76C235.406 14.6533 235.193 14.6 234.926 14.6C234.499 14.6 234.033 14.76 233.526 15.08C233.046 15.3733 232.659 15.6667 232.366 15.96C232.046 16.2533 231.659 16.72 231.206 17.36C230.779 17.9733 230.353 18.6533 229.926 19.4C229.499 20.1467 229.139 20.8667 228.846 21.56C228.553 22.2533 228.406 22.8133 228.406 23.24C228.406 23.56 228.513 23.72 228.726 23.72Z" fill="black"/>
</svg>
